:FULLY-SPECIFIED
:FORCE-ALL-JOINTS-BE-3DOF
:DEGREES
388
root 9.45848 17.0688 18.1255 6.14281 -0.298245 -4.93203
lfemur -41.2967 2.92654 -15.6968
ltibia 29.7493 0 0
lfoot -14.7632 9.27033 0
ltoes -15.1415 0 0
rfemur 2.18655 5.66452 31.3216
rtibia 14.5966 0 0
rfoot -16.1156 5.2596 0
rtoes -16.404 0 0
lowerback -6.82501 2.46126 1.41662
upperback -0.0313361 3.04167 3.33899
thorax 3.68649 1.51034 2.96183
lowerneck -19.279 -6.21521 -13.1817
upperneck 21.543 -8.09545 13.2042
head 11.3026 -3.24433 5.80759
lclavicle -1.85258e-14 2.43511e-15 0
lhumerus -50.244 -11.4888 95.309
lradius 26.25 0 0
lwrist 9.49654 0 0
lhand -13.7434 -22.2337 0
lfingers 7.12502 0 0
lthumb 12.3763 7.37724 0
rclavicle -1.85258e-14 2.43511e-15 0
rhumerus -27.2643 16.7388 -83.0582
rradius 43.1623 0 0
rwrist -21.5011 0 0
rhand -32.2643 -23.2154 0
rfingers 7.12502 0 0
rthumb -5.50394 -53.1242 0
389
root 9.46801 17.0631 18.2589 6.07886 -0.45299 -5.23157
lfemur -41.3551 2.68547 -15.2096
ltibia 28.1625 0 0
lfoot -14.8845 9.36402 0
ltoes -15.7183 0 0
rfemur 3.42817 5.70251 31.6203
rtibia 13.2668 0 0
rfoot -15.658 5.43478 0
rtoes -15.696 0 0
lowerback -6.83082 2.56077 1.65865
upperback 0.0507831 3.1486 3.4307
thorax 3.7786 1.56619 2.93603
lowerneck -19.3663 -6.24089 -13.2321
upperneck 21.5174 -8.1138 13.2456
head 11.3176 -3.24908 5.82772
lclavicle -2.65414e-14 1.17795e-16 0
lhumerus -50.4713 -11.3352 95.3441
lradius 26.3645 0 0
lwrist 9.67072 0 0
lhand -13.2649 -21.8302 0
lfingers 7.12502 0 0
lthumb 12.8377 7.75266 0
rclavicle -2.65414e-14 1.17795e-16 0
rhumerus -26.8861 16.5874 -83.081
rradius 42.7529 0 0
rwrist -21.3315 0 0
rhand -32.3022 -22.7395 0
rfingers 7.12502 0 0
rthumb -5.54046 -52.6474 0
390
root 9.47753 17.0574 18.3924 6.02563 -0.597963 -5.51876
lfemur -41.4208 2.34289 -14.6672
ltibia 26.6949 0 0
lfoot -15.0062 9.5894 0
ltoes -16.2469 0 0
rfemur 4.69812 5.74452 31.8961
rtibia 11.865 0 0
rfoot -15.1216 5.59667 0
rtoes -14.9601 0 0
lowerback -6.84671 2.6571 1.89504
upperback 0.126404 3.2513 3.51726
thorax 3.87022 1.62 2.90838
lowerneck -19.4428 -6.26567 -13.2816
upperneck 21.4953 -8.13033 13.2778
head 11.331 -3.25437 5.84454
lclavicle -3.2739e-14 -2.38726e-15 0
lhumerus -50.6917 -11.1854 95.3864
lradius 26.4706 0 0
lwrist 9.7979 0 0
lhand -12.8392 -21.6177 0
lfingers 7.12502 0 0
lthumb 13.2481 7.94006 0
rclavicle -3.2739e-14 -2.38726e-15 0
rhumerus -26.5548 16.4415 -83.1133
rradius 42.3685 0 0
rwrist -21.1629 0 0
rhand -32.298 -22.3328 0
rfingers 7.12502 0 0
rthumb -5.53647 -52.2408 0
391
root 9.48706 17.0517 18.5259 5.99963 -0.73729 -5.76612
lfemur -41.5197 1.85283 -14.0762
ltibia 25.3853 0 0
lfoot -15.1155 9.99041 0
ltoes -16.6809 0 0
rfemur 5.98129 5.7848 32.1148
rtibia 10.3882 0 0
rfoot -14.4814 5.74206 0
rtoes -14.2254 0 0
lowerback -6.88938 2.75178 2.10373
upperback 0.187041 3.35339 3.58934
thorax 3.9613 1.67337 2.88231
lowerneck -19.4876 -6.28664 -13.3307
upperneck 21.4778 -8.14292 13.299
head 11.3387 -3.26018 5.85814
lclavicle -3.54085e-14 -4.77083e-15 0
lhumerus -50.9077 -11.0319 95.4366
lradius 26.547 0 0
lwrist 9.84139 0 0
lhand -12.5494 -21.725 0
lfingers 7.12502 0 0
lthumb 13.5275 7.81564 0
rclavicle -3.54085e-14 -4.77083e-15 0
rhumerus -26.2964 16.2992 -83.153
rradius 42.0452 0 0
rwrist -20.9921 0 0
rhand -32.2316 -22.0431 0
rfingers 7.12502 0 0
rthumb -5.47233 -51.9525 0
392
root 9.50246 17.0404 18.6662 6.00048 -0.871917 -5.97763
lfemur -41.6523 1.13129 -13.3727
ltibia 24.2144 0 0
lfoot -15.2162 10.6901 0
ltoes -17.0842 0 0
rfemur 7.35382 5.83147 32.2759
rtibia 8.68672 0 0
rfoot -13.6537 5.86571 0
rtoes -13.4051 0 0
lowerback -6.95914 2.84983 2.29427
upperback 0.235252 3.46055 3.64721
thorax 4.05529 1.72932 2.85376
lowerneck -19.5039 -6.30834 -13.3848
upperneck 21.4699 -8.15593 13.3074
head 11.344 -3.26904 5.86808
lclavicle -3.33268e-14 -7.13507e-15 0
lhumerus -51.1121 -10.8765 95.4966
lradius 26.5902 0 0
lwrist 9.78289 0 0
lhand -12.408 -22.259 0
lfingers 7.12502 0 0
lthumb 13.6638 7.27324 0
rclavicle -3.33268e-14 -7.13507e-15 0
rhumerus -26.1089 16.1575 -83.1955
rradius 41.7859 0 0
rwrist -20.8291 0 0
rhand -32.0724 -21.9062 0
rfingers 7.12502 0 0
rthumb -5.31862 -51.8191 0
393
root 9.51785 17.0291 18.8065 6.01491 -0.998729 -6.17608
lfemur -41.7984 0.198214 -12.5388
ltibia 23.1472 0 0
lfoot -15.3193 11.6781 0
ltoes -17.507 0 0
rfemur 8.84303 5.89077 32.4068
rtibia 6.73287 0 0
rfoot -12.6416 5.96916 0
rtoes -12.4587 0 0
lowerback -7.04268 2.95104 2.4862
upperback 0.278335 3.571 3.69838
thorax 4.15293 1.78719 2.81916
lowerneck -19.5091 -6.33401 -13.4443
upperneck 21.4715 -8.17194 13.3038
head 11.3508 -3.28144 5.8742
lclavicle -2.76172e-14 -9.74779e-15 0
lhumerus -51.3014 -10.7256 95.5659
lradius 26.6165 0 0
lwrist 9.64809 0 0
lhand -12.3512 -23.1381 0
lfingers 7.12502 0 0
lthumb 13.7186 6.39066 0
rclavicle -2.76172e-14 -9.74779e-15 0
rhumerus -25.971 16.0173 -83.2416
rradius 41.5625 0 0
rwrist -20.6781 0 0
rhand -31.8307 -21.8914 0
rfingers 7.12502 0 0
rthumb -5.08518 -51.8095 0
394
root 9.53325 17.0178 18.9467 6.04007 -1.11577 -6.36218
lfemur -41.9518 -0.836386 -11.6498
ltibia 22.1993 0 0
lfoot -15.4228 12.7977 0
ltoes -17.8816 0 0
rfemur 10.3606 5.9541 32.5148
rtibia 4.70697 0 0
rfoot -11.5508 6.05933 0
rtoes -11.4846 0 0
lowerback -7.13628 3.04908 2.67248
upperback 0.31492 3.67721 3.7444
thorax 4.25006 1.84303 2.78271
lowerneck -19.5037 -6.35879 -13.5027
upperneck 21.4765 -8.18613 13.2909
head 11.356 -3.29438 5.877
lclavicle -2.00897e-14 -1.25483e-14 0
lhumerus -51.4838 -10.5784 95.6423
lradius 26.6346 0 0
lwrist 9.4663 0 0
lhand -12.3473 -24.2083 0
lfingers 7.12502 0 0
lthumb 13.7223 5.32005 0
rclavicle -2.00897e-14 -1.25483e-14 0
rhumerus -25.88 15.8825 -83.2972
rradius 41.3643 0 0
rwrist -20.5279 0 0
rhand -31.547 -21.9459 0
rfingers 7.12502 0 0
rthumb -4.81124 -51.8702 0
395
root 9.54865 17.0065 19.087 6.07311 -1.22108 -6.53662
lfemur -42.1066 -1.8625 -10.7812
ltibia 21.386 0 0
lfoot -15.5246 13.8925 0
ltoes -18.1405 0 0
rfemur 11.8181 6.01286 32.6072
rtibia 2.78931 0 0
rfoot -10.4867 6.14311 0
rtoes -10.581 0 0
lowerback -7.23626 3.13762 2.84608
upperback 0.343636 3.77166 3.78679
thorax 4.34255 1.89288 2.74861
lowerneck -19.4878 -6.37782 -13.5537
upperneck 21.4789 -8.19369 13.2712
head 11.3563 -3.30483 5.877
lclavicle -1.25538e-14 -1.54757e-14 0
lhumerus -51.6674 -10.4342 95.7237
lradius 26.6529 0 0
lwrist 9.26682 0 0
lhand -12.3646 -25.3156 0
lfingers 7.12502 0 0
lthumb 13.7056 4.21358 0
rclavicle -1.25538e-14 -1.54757e-14 0
rhumerus -25.833 15.7571 -83.368
rradius 41.1802 0 0
rwrist -20.3673 0 0
rhand -31.2619 -22.0171 0
rfingers 7.12502 0 0
rthumb -4.53603 -51.9476 0
396
root 9.56404 16.9952 19.2273 6.11116 -1.31269 -6.70011
lfemur -42.2567 -2.77012 -10.0081
ltibia 20.7225 0 0
lfoot -15.6229 14.806 0
ltoes -18.2161 0 0
rfemur 13.1273 6.05844 32.6915
rtibia 1.16022 0 0
rfoot -9.55504 6.22743 0
rtoes -9.84596 0 0
lowerback -7.33889 3.21031 2.99994
upperback 0.363109 3.8468 3.8271
thorax 4.42627 1.93279 2.72103
lowerneck -19.4617 -6.38621 -13.5908
upperneck 21.4724 -8.18983 13.2475
head 11.3487 -3.30977 5.8747
lclavicle -6.81942e-15 -1.84694e-14 0
lhumerus -51.8604 -10.2923 95.8076
lradius 26.6797 0 0
lwrist 9.07895 0 0
lhand -12.3713 -26.3059 0
lfingers 7.12502 0 0
lthumb 13.6991 3.22339 0
rclavicle -6.81942e-15 -1.84694e-14 0
rhumerus -25.8271 15.645 -83.4598
rradius 40.9996 0 0
rwrist -20.1852 0 0
rhand -31.0162 -22.0522 0
rfingers 7.12502 0 0
rthumb -4.29879 -51.9882 0
